<svg width="46" height="46" viewBox="0 0 46 46" fill="none" xmlns="http://www.w3.org/2000/svg">
<path fill-rule="evenodd" clip-rule="evenodd" d="M19.5002 28.7723C22.2719 31.0418 25.813 32.405 29.6664 32.405C38.5282 32.405 45.7379 25.1954 45.7379 16.3336C45.7379 7.47178 38.5282 0.262142 29.6664 0.262142C20.8046 0.262142 13.595 7.47178 13.595 16.3336C13.595 20.187 14.9582 23.7281 17.2277 26.4998L0.731428 42.9961C0.507189 43.221 0.35463 43.5074 0.293013 43.8189C0.231398 44.1305 0.263489 44.4534 0.385235 44.7467C0.506981 45.0401 0.712923 45.2908 0.977057 45.4672C1.24119 45.6436 1.55167 45.7378 1.86929 45.7379C2.0807 45.7378 2.29004 45.6961 2.48529 45.615C2.68054 45.5339 2.85788 45.4151 3.00714 45.2654L19.5002 28.7723ZM16.8093 16.3336C16.8093 9.24286 22.5757 3.47643 29.6664 3.47643C36.7539 3.47643 42.5236 9.24286 42.5236 16.3336C42.5236 23.4243 36.7571 29.1907 29.6664 29.1907C22.5757 29.1907 16.8093 23.4243 16.8093 16.3336Z" fill="url(#paint0_linear_58_2)"/>
<defs>
<linearGradient id="paint0_linear_58_2" x1="6.69684e-07" y1="46" x2="54.6747" y2="15.603" gradientUnits="userSpaceOnUse">
<stop stop-color="#3E6988"/>
<stop offset="0.5" stop-color="#3DA077"/>
<stop offset="1" stop-color="#BC9D2D"/>
</linearGradient>
</defs>
</svg>
